<svg id="eZJGF2SDA1V1" xmlns="http://www.w3.org/2000/svg" xmlns:xlink="http://www.w3.org/1999/xlink" viewBox="0 0 512 512" shape-rendering="geometricPrecision" text-rendering="geometricPrecision"><style><![CDATA[#eZJGF2SDA1V5_ts {animation: eZJGF2SDA1V5_ts__ts 3000ms linear infinite normal forwards}@keyframes eZJGF2SDA1V5_ts__ts { 0% {transform: translate(256px,256px) scale(1,1)} 10% {transform: translate(256px,256px) scale(1.14589,1.14589);animation-timing-function: cubic-bezier(0.01,0.02,0,1.01)} 20% {transform: translate(256px,256px) scale(1,1)} 100% {transform: translate(256px,256px) scale(1,1)}} #eZJGF2SDA1V7_to {animation: eZJGF2SDA1V7_to__to 3000ms linear infinite normal forwards}@keyframes eZJGF2SDA1V7_to__to { 0% {transform: translate(925.428406px,256px);animation-timing-function: cubic-bezier(0.42,0,0.58,1)} 40% {transform: translate(98.428406px,256px)} 100% {transform: translate(98.428406px,256px)}}]]></style><g id="eZJGF2SDA1V2"><g id="eZJGF2SDA1V3"><g id="eZJGF2SDA1V4"><g id="eZJGF2SDA1V5_ts" transform="translate(256,256) scale(1,1)"><path id="eZJGF2SDA1V5" d="M470.59661,190.2077C470.59661,266.3677,409.45083,318.47528,316.8943,397.35043C301.16588,410.75434,283.34933,425.93788,264.82864,442.1349C262.3876,444.27165,259.25248,445.44857,256,445.44857C252.74752,445.44857,249.6124,444.27164,247.17136,442.13406C228.65234,425.93956,210.83496,410.75517,195.11576,397.35881C102.54918,318.47528,41.4034,266.3677,41.4034,190.2077C41.4034,119.71188,90.41525,66.55143,155.40785,66.55143C178.69745,66.55143,200.04981,73.93154,218.87061,88.48723C236.91433,102.44188,248.92755,120.21484,256.00001,133.14009C263.07248,120.21567,275.0857,102.44188,293.12941,88.48723C311.9502,73.93154,333.30257,66.55143,356.59217,66.55143C421.58476,66.55143,470.59662,119.71187,470.59662,190.2077L470.59661,190.2077Z" transform="translate(-256,-256)" fill="rgb(255,255,255)" stroke="rgb(0,0,0)" stroke-width="20" stroke-miterlimit="1"/></g></g></g></g><g id="eZJGF2SDA1V6" transform="matrix(1 0 0 1 -10 0)"><g id="eZJGF2SDA1V7_to" transform="translate(925.428406,256)"><g id="eZJGF2SDA1V7" transform="translate(-925.428406,-256)"><line id="eZJGF2SDA1V8" x1="41.22262" y1="93.381854" x2="-41.222621" y2="-93.381854" transform="matrix(1 0 0 1 770.270217 153.998976)" fill="none" stroke="rgb(0,0,0)" stroke-width="20" stroke-miterlimit="1"/><line id="eZJGF2SDA1V9" x1="30.286007" y1="-199.382878" x2="-30.286007" y2="199.382878" transform="matrix(1 0 0 1 698.761589 256)" fill="none" stroke="rgb(0,0,0)" stroke-width="20" stroke-miterlimit="1"/><line id="eZJGF2SDA1V10" x1="28.60345" y1="106.001024" x2="-28.603451" y2="-106.001024" transform="matrix(1 0 0 1 639.872132 349.381854)" fill="none" stroke="rgb(0,0,0)" stroke-width="20" stroke-miterlimit="1"/><line id="eZJGF2SDA1V11" x1="122.826583" y1="0" x2="-122.826584" y2="0" transform="matrix(2.50548 0 0 1 1115.008231 245.38083)" fill="none" stroke="rgb(0,0,0)" stroke-width="20" stroke-miterlimit="1"/><line id="eZJGF2SDA1V12" x1="122.826583" y1="0" x2="-122.826584" y2="0" transform="matrix(2.50548 0 0 1 309.442099 245.38083)" fill="none" stroke="rgb(0,0,0)" stroke-width="20" stroke-miterlimit="1"/></g></g></g></svg>